<?xml version="1.0" encoding="UTF-8"?>
<svg id="OBJECTS" xmlns="http://www.w3.org/2000/svg" version="1.1" xmlns:xlink="http://www.w3.org/1999/xlink" viewBox="0 0 500 500">
  <!-- Generator: Adobe Illustrator 29.8.4, SVG Export Plug-In . SVG Version: 2.1.1 Build 6)  -->
  <defs>
    <style>
      .st0 {
        fill: #fff;
      }

      .st1 {
        fill: url(#linear-gradient);
      }
    </style>
    <linearGradient id="linear-gradient" x1="5" y1="250" x2="495" y2="250" gradientUnits="userSpaceOnUse">
      <stop offset="0" stop-color="#1b5068"/>
      <stop offset="1" stop-color="#18141f"/>
    </linearGradient>
  </defs>
  <rect class="st1" x="5" y="5" width="490" height="490" rx="140.7" ry="140.7"/>
  <g>
    <path class="st0" d="M404.9,190.3c-.2-4.8-.6-17.1-3-20.7-1.2-1.8-4.2-3.2-4.5-4.7v-35.9c0-.4-.2-1.9.8-3,.2-.2.5-.4.7-.5-2.7-1-126-44.6-139.9-49-9.7,3.9-19.8,6.9-29.6,10.2-38.6,13.3-115.5,40.5-115.5,40.5,0,0,32.7,8.7,48.1,13.6,4-4.1,7.6-7.7,12.7-10.3,24.5-12.2,63.8-10.4,89.8-4.3.9.2,2.5,1,2.5,1,0,0-35.3-1.8-49.2,0-1,.1-35.7,6.7-41.8,17.9-3.3,5.9-4.8,19.7-6.3,26.9-9,43.9-17.3,88-26.5,131.9-.2,1.2-2.8,10.6-2.8,10.6,3.3,1.7,14.7,10.2,15.2,10.4,12.8,7.1,27.3,11.2,41.7,12.8l10.2-51.3c15.7,0,31.3-.1,47,0,1.1,0,59.8-1.4,70,21.1,8.3,18.4-7.4,31.9-21.7,39-19.1,9.5-41.6,13.3-56.8,29.9-14-16.9-34.1-22.1-54-27.6-20.2-5.6-37.3-9.3-55.1-21.5-1-.7-7.2-5-7.2-5,0,0-4.5,13.5,1.6,20.7,7.7,9.5,26.6,15,38.1,16.8,1.9.3,13.3,1.7,14,1.2,9.8,1.2,19.6,2,29.1,4.8,11.7,3.5,24.6,10.7,31.5,21.1h.8c7-6.8,15.3-11.4,24.1-15.3,33.5-14.9,75-2.3,101.4-31.6l4-5.5c-4.6,17.6-21.7,27.1-37.6,31.3-17.4,4.7-35.7,3.8-53,9-13.9,4.1-27.3,11.7-37.5,22.4.3.7,1.4,0,2-.2,3.2-1.3,6.7-4,10.1-5.6,23.1-10.9,41.5-9.9,65.8-12.9,17.8-2.2,36.4-7.4,47.9-22.6.7.4,0,1.4-.2,2-16.5,32.5-65.3,26.4-94.7,34.8-13.1,3.7-25.6,9.8-36.4,18.4-10.4-10.1-25.4-14-39.3-14.8-1.9-.1-26.1,2.8-32.2,3.6-5.4.7-10.8,1.5-16,2.3-6.5.6-12.2.9-16.7,1.1-.7,0-7.9.3-14.7-.8-1.6-.2-4.3-.7-7.1-2.4-1.4-.8-2.7-1.8-2.9-2.1-1.5-1.4-2.8-2.7-2.9-2.9-2.4-3.7,10.5-77.7,9.6-78.4-.5-.4-7.6,18.5-10,28.8-4,17.6-9.1,35.8-12.3,53.5-1.5,8.1-2.9,12.7,5,17.4,25.6,15,61.9.3,88.8-2.5,10.1-1,26.2.5,35.9,3.8,2.3.8,11.5,6,12.1,6,1.2-.1,4.5-2.6,5.9-3.2,33.4-14.5,72-.3,107-18.1,52.2-26.5,50.1-108.6-2.6-132.2-1.2-.5-7.8-2.7-7.8-2.7,0,0,5.8-4,6.6-4.5,33.8-21.1,35-73.6,1.9-95.7-19.2-12.8-41-14.8-63.2-15.8-12.4-.6-25.2-.2-37.4-2.3-5.3-.9-11.4-2.5-15.7-5.7,11.8,2.5,24,1.4,35.9.3,3.6-.3,7.4-1,10.4-1.1,13.5-.6,29.9.6,43.2,2.9,9.4,1.6,18.7,4.2,27.3,8.7.9-1.3,41-22.8,42.2-23.2.1,11.6,1.3,23,1.1,34.5,0,.9-3.3,2.9-4.2,4.5-.7,1.3-1.5,4-1.6,5.5-.6,5.1-.7,20.9,0,25.8.2,1.1.9,3.1,1.8,3.7,2.5,1.7,13.3,1.4,15.4-1.1,1.3-1.6.9-10.9.8-13.5ZM261.3,191.7c.7,0,1.4,0,2.1,0,3.7,0,7.5,0,11.2,0,21.3.5,49.9-1.2,46.7,30-2.8,28-36.2,26.2-55.8,26.3-16.8.1-33.7-.9-50.5-.6l11.2-55.2c11.7.1,23.3-.6,35-.6Z"/>
    <path class="st0" d="M222.1,382.4l14.7,7.6c.6-.6-1.7-2.6-2.1-3-29.7-28.7-74-8.4-105.3-33.7-.9-.7-5.4-4.6-5.4-4.6,0,0-4.6,17.9,12.6,24.2,26.9,10.5,58.2-2.3,85.4,9.7Z"/>
    <path class="st0" d="M118.8,371.8s-4.9,13.3,3,18.1c15.8,9.8,39.1,3.2,56,.7.8-.1,3.2-.5,3.7-.6,18.1-2.3,36.8-1.1,53.2,7.7,0-.3,0-.6,0-.8-.2-.6-.8-1-1.1-1.1-19.6-10.4-23.3-11.1-23.3-11.1-9-1.7-15.6-1.5-25.1-1.4-39.6.6-53.9-.6-64.7-9.9-.8-.7-1.4-1.3-1.8-1.7Z"/>
  </g>
</svg>