<?xml version="1.0" encoding="UTF-8"?>
<svg id="OBJECTS" xmlns="http://www.w3.org/2000/svg" version="1.1" xmlns:xlink="http://www.w3.org/1999/xlink" viewBox="0 0 500 500">
  <!-- Generator: Adobe Illustrator 29.8.4, SVG Export Plug-In . SVG Version: 2.1.1 Build 6)  -->
  <defs>
    <style>
      .st0 {
        fill: url(#linear-gradient2);
      }

      .st1 {
        fill: #fff;
      }

      .st2 {
        fill: url(#linear-gradient1);
      }

      .st3 {
        fill: #dfe0e1;
      }

      .st4 {
        fill: url(#linear-gradient4);
      }

      .st5 {
        fill: url(#linear-gradient5);
      }

      .st6 {
        fill: url(#linear-gradient3);
      }

      .st7 {
        fill: url(#linear-gradient6);
      }

      .st8 {
        fill: url(#linear-gradient);
      }

      .st9 {
        fill: #cecfd1;
      }
    </style>
    <linearGradient id="linear-gradient" x1="134.6" y1="275.8" x2="146.2" y2="275.8" gradientUnits="userSpaceOnUse">
      <stop offset="0" stop-color="#1b5068"/>
      <stop offset="1" stop-color="#18141f"/>
    </linearGradient>
    <linearGradient id="linear-gradient1" x1="164.9" y1="282.5" x2="176.5" y2="282.5" xlink:href="#linear-gradient"/>
    <linearGradient id="linear-gradient2" x1="252.4" y1="228.8" x2="252.4" y2="228.8" xlink:href="#linear-gradient"/>
    <linearGradient id="linear-gradient3" x1="252.4" y1="228.8" x2="252.4" y2="228.8" xlink:href="#linear-gradient"/>
    <linearGradient id="linear-gradient4" x1="259.4" y1="206.4" x2="259.4" y2="206.4" xlink:href="#linear-gradient"/>
    <linearGradient id="linear-gradient5" x1="259.3" y1="206.4" x2="259.4" y2="206.4" xlink:href="#linear-gradient"/>
    <linearGradient id="linear-gradient6" x1="81.1" y1="241.3" x2="281.1" y2="241.3" xlink:href="#linear-gradient"/>
  </defs>
  <g>
    <g>
      <path class="st1" d="M404.9,190.3c-.2-4.8-.6-17.1-3-20.7-1.2-1.8-4.2-3.2-4.5-4.7v-35.9c0-.4-.2-1.9.8-3,.2-.2.5-.4.7-.5-2.7-1-126-44.6-139.9-49-9.7,3.9-19.8,6.9-29.6,10.2-38.6,13.3-115.5,40.5-115.5,40.5,0,0,32.7,8.7,48.1,13.6,4-4.1,7.6-7.7,12.7-10.3,24.5-12.2,63.8-10.4,89.8-4.3.9.2,2.5,1,2.5,1,0,0-35.3-1.8-49.2,0-1,.1-35.7,6.7-41.8,17.9-3.3,5.9-4.8,19.7-6.3,26.9-9,43.9-17.3,88-26.5,131.9-.2,1.2-2.8,10.6-2.8,10.6,3.3,1.7,14.7,10.2,15.2,10.4,12.8,7.1,27.3,11.2,41.7,12.8l10.2-51.3c15.7,0,31.3-.1,47,0,1.1,0,59.8-1.4,70,21.1,8.3,18.4-7.4,31.9-21.7,39-19.1,9.5-41.6,13.3-56.8,29.9-14-16.9-34.1-22.1-54-27.6-20.2-5.6-37.3-9.3-55.1-21.5-1-.7-7.2-5-7.2-5,0,0-4.5,13.5,1.6,20.7,7.7,9.5,26.6,15,38.1,16.8,1.9.3,13.3,1.7,14,1.2,9.8,1.2,19.6,2,29.1,4.8,11.7,3.5,24.6,10.7,31.5,21.1h.8c7-6.8,15.3-11.4,24.1-15.3,33.5-14.9,75-2.3,101.4-31.6l4-5.5c-4.6,17.6-21.7,27.1-37.6,31.3-17.4,4.7-35.7,3.8-53,9-13.9,4.1-27.3,11.7-37.5,22.4.3.7,1.4,0,2-.2,3.2-1.3,6.7-4,10.1-5.6,23.1-10.9,41.5-9.9,65.8-12.9,17.8-2.2,36.4-7.4,47.9-22.6.7.4,0,1.4-.2,2-16.5,32.5-65.3,26.4-94.7,34.8-13.1,3.7-25.6,9.8-36.4,18.4-10.4-10.1-25.4-14-39.3-14.8-1.9-.1-26.1,2.8-32.2,3.6-5.4.7-10.8,1.5-16,2.3-6.5.6-12.2.9-16.7,1.1-.7,0-7.9.3-14.7-.8-1.6-.2-4.3-.7-7.1-2.4-1.4-.8-2.7-1.8-2.9-2.1-1.5-1.4-2.8-2.7-2.9-2.9-2.4-3.7,10.5-77.7,9.6-78.4-.5-.4-7.6,18.5-10,28.8-4,17.6-9.1,35.8-12.3,53.5-1.5,8.1-2.9,12.7,5,17.4,25.6,15,61.9.3,88.8-2.5,10.1-1,26.2.5,35.9,3.8,2.3.8,11.5,6,12.1,6,1.2-.1,4.5-2.6,5.9-3.2,33.4-14.5,72-.3,107-18.1,52.2-26.5,50.1-108.6-2.6-132.2-1.2-.5-7.8-2.7-7.8-2.7,0,0,5.8-4,6.6-4.5,33.8-21.1,35-73.6,1.9-95.7-19.2-12.8-41-14.8-63.2-15.8-12.4-.6-25.2-.2-37.4-2.3-5.3-.9-11.4-2.5-15.7-5.7,11.8,2.5,24,1.4,35.9.3,3.6-.3,7.4-1,10.4-1.1,13.5-.6,29.9.6,43.2,2.9,9.4,1.6,18.7,4.2,27.3,8.7.9-1.3,41-22.8,42.2-23.2.1,11.6,1.3,23,1.1,34.5,0,.9-3.3,2.9-4.2,4.5-.7,1.3-1.5,4-1.6,5.5-.6,5.1-.7,20.9,0,25.8.2,1.1.9,3.1,1.8,3.7,2.5,1.7,13.3,1.4,15.4-1.1,1.3-1.6.9-10.9.8-13.5ZM261.3,191.7c.7,0,1.4,0,2.1,0,3.7,0,7.5,0,11.2,0,21.3.5,49.9-1.2,46.7,30-2.8,28-36.2,26.2-55.8,26.3-16.8.1-33.7-.9-50.5-.6l11.2-55.2c11.7.1,23.3-.6,35-.6Z"/>
      <path class="st1" d="M222.1,382.4l14.7,7.6c.6-.6-1.7-2.6-2.1-3-29.7-28.7-74-8.4-105.3-33.7-.9-.7-5.4-4.6-5.4-4.6,0,0-4.6,17.9,12.6,24.2,26.9,10.5,58.2-2.3,85.4,9.7Z"/>
      <path class="st1" d="M118.8,371.8s-4.9,13.3,3,18.1c15.8,9.8,39.1,3.2,56,.7.8-.1,3.2-.5,3.7-.6,18.1-2.3,36.8-1.1,53.2,7.7,0-.3,0-.6,0-.8-.2-.6-.8-1-1.1-1.1-19.6-10.4-23.3-11.1-23.3-11.1-9-1.7-15.6-1.5-25.1-1.4-39.6.6-53.9-.6-64.7-9.9-.8-.7-1.4-1.3-1.8-1.7Z"/>
    </g>
    <g>
      <path class="st3" d="M404.9,190.3c-.2-4.8-.6-17.1-3-20.7-1.2-1.8-4.2-3.2-4.5-4.7v-35.9c0-.4-.2-1.9.8-3,.2-.2.5-.4.7-.5-2.7-1-126-44.6-139.9-49-9.7,3.9-19.8,6.9-29.6,10.2-38.6,13.3-115.5,40.5-115.5,40.5,0,0,32.7,8.7,48.1,13.6,4-4.1,7.6-7.7,12.7-10.3,24.5-12.2,63.8-10.4,89.8-4.3.9.2,2.5,1,2.5,1,0,0-35.3-1.8-49.2,0-1,.1-35.7,6.7-41.8,17.9-3.3,5.9-4.8,19.7-6.3,26.9-9,43.9-17.3,88-26.5,131.9-.2,1.2-2.8,10.6-2.8,10.6,3.3,1.7,14.7,10.2,15.2,10.4,12.8,7.1,27.3,11.2,41.7,12.8l10.2-51.3c15.7,0,31.3-.1,47,0,1.1,0,59.8-1.4,70,21.1,8.3,18.4-7.4,31.9-21.7,39-19.1,9.5-41.6,13.3-56.8,29.9-14-16.9-34.1-22.1-54-27.6-20.2-5.6-37.3-9.3-55.1-21.5-1-.7-7.2-5-7.2-5,0,0-4.5,13.5,1.6,20.7,7.7,9.5,26.6,15,38.1,16.8,1.9.3,13.3,1.7,14,1.2,9.8,1.2,19.6,2,29.1,4.8,11.7,3.5,24.6,10.7,31.5,21.1h.8c7-6.8,15.3-11.4,24.1-15.3,33.5-14.9,75-2.3,101.4-31.6l4-5.5c-4.6,17.6-21.7,27.1-37.6,31.3-17.4,4.7-35.7,3.8-53,9-13.9,4.1-27.3,11.7-37.5,22.4.3.7,1.4,0,2-.2,3.2-1.3,6.7-4,10.1-5.6,23.1-10.9,41.5-9.9,65.8-12.9,17.8-2.2,36.4-7.4,47.9-22.6.7.4,0,1.4-.2,2-16.5,32.5-65.3,26.4-94.7,34.8-13.1,3.7-25.6,9.8-36.4,18.4-10.4-10.1-25.4-14-39.3-14.8-1.9-.1-26.1,2.8-32.2,3.6-5.4.7-10.8,1.5-16,2.3-6.5.6-12.2.9-16.7,1.1-.7,0-7.9.3-14.7-.8-1.6-.2-4.3-.7-7.1-2.4-1.4-.8-2.7-1.8-2.9-2.1-1.5-1.4-2.8-2.7-2.9-2.9-2.4-3.7,10.5-77.7,9.6-78.4-.5-.4-7.6,18.5-10,28.8-4,17.6-9.1,35.8-12.3,53.5-1.5,8.1-2.9,12.7,5,17.4,25.6,15,61.9.3,88.8-2.5,10.1-1,26.2.5,35.9,3.8,2.3.8,11.5,6,12.1,6,1.2-.1,4.5-2.6,5.9-3.2,33.4-14.5,72-.3,107-18.1,52.2-26.5,50.1-108.6-2.6-132.2-1.2-.5-7.8-2.7-7.8-2.7,0,0,5.8-4,6.6-4.5,33.8-21.1,35-73.6,1.9-95.7-19.2-12.8-41-14.8-63.2-15.8-12.4-.6-25.2-.2-37.4-2.3-5.3-.9-11.4-2.5-15.7-5.7,11.8,2.5,24,1.4,35.9.3,3.6-.3,7.4-1,10.4-1.1,13.5-.6,29.9.6,43.2,2.9,9.4,1.6,18.7,4.2,27.3,8.7.9-1.3,41-22.8,42.2-23.2.1,11.6,1.3,23,1.1,34.5,0,.9-3.3,2.9-4.2,4.5-.7,1.3-1.5,4-1.6,5.5-.6,5.1-.7,20.9,0,25.8.2,1.1.9,3.1,1.8,3.7,2.5,1.7,13.3,1.4,15.4-1.1,1.3-1.6.9-10.9.8-13.5ZM261.3,191.7c.7,0,1.4,0,2.1,0,3.7,0,7.5,0,11.2,0,21.3.5,49.9-1.2,46.7,30-2.8,28-36.2,26.2-55.8,26.3-16.8.1-33.7-.9-50.5-.6l11.2-55.2c11.7.1,23.3-.6,35-.6Z"/>
      <path class="st3" d="M222.1,382.4l14.7,7.6c.6-.6-1.7-2.6-2.1-3-29.7-28.7-74-8.4-105.3-33.7-.9-.7-5.4-4.6-5.4-4.6,0,0-4.6,17.9,12.6,24.2,26.9,10.5,58.2-2.3,85.4,9.7Z"/>
      <path class="st3" d="M118.8,371.8s-4.9,13.3,3,18.1c15.8,9.8,39.1,3.2,56,.7.8-.1,3.2-.5,3.7-.6,18.1-2.3,36.8-1.1,53.2,7.7,0-.3,0-.6,0-.8-.2-.6-.8-1-1.1-1.1-19.6-10.4-23.3-11.1-23.3-11.1-9-1.7-15.6-1.5-25.1-1.4-39.6.6-53.9-.6-64.7-9.9-.8-.7-1.4-1.3-1.8-1.7Z"/>
    </g>
  </g>
  <path class="st9" d="M479.5,241.3h-40.2c-52.4-35.9-85.3-94.7-88.9-158.5l8.6-43-20.1,35.9c-55.9,28.7-121.9,28.7-177.9,0l-31.6-28.7,20.1,35.9c-3.6,63.8-36.6,123.4-88.9,158.5H20.5l40.2,13.6c52.4,35.1,85.3,94.7,88.9,158.5l-20.1,35.9,31.6-28.7c55.9-28.7,121.9-28.7,177.9,0l20.1,35.9-8.6-43c3.6-63.8,36.6-123.4,88.9-158.5l40.2-13.6M417.1,241.3h-39.4c-33.7-23-55.9-61.7-58.1-103.3l20.1-35.1c7.2,54.5,35.1,104,77.5,138.4M250,234.1l-16.5-29.4c5,1.4,10.8,2.2,16.5,2.2s11.5-.7,16.5-2.2l-16.5,29.4M278,211.9c3.6,10.8,9.3,20.8,16.5,29.4h-33l16.5-29.4M238.5,241.3h-33c7.2-8.6,12.9-18.6,16.5-29.4l16.5,29.4M238.5,254.9l-16.5,29.4c-3.6-10.8-9.3-20.8-16.5-29.4h33M250,261.3l16.5,29.4c-10.8-2.2-22.2-2.2-33,0l16.5-29.4M261.5,254.9h33c-7.2,8.6-12.9,18.6-16.5,29.4l-16.5-29.4M314.5,241.3c-15.1-10.8-25.1-28-26.5-47.3l20.8-36.6c5.7,32.3,22.2,62.4,46.6,83.9h-40.9M276.5,186.8c-16.5,8.6-36.6,8.6-53.1,0l-20.1-36.6c15.1,5.7,30.8,7.9,46.6,7.9s31.6-2.9,46.6-7.9l-20.1,36.6M212,193.2c-1.4,19.4-10.8,36.6-26.5,47.3h-40.9c24.4-21.5,40.9-50.9,46.6-83.9l20.8,36.6M185.5,254.9c15.1,10.8,25.1,28,26.5,47.3l-20.8,36.6c-5.7-32.3-22.2-62.4-46.6-83.9h40.9M223.5,308.7c16.5-8.6,36.6-8.6,53.1,0l20.8,36.6c-30.1-10.8-63.8-10.8-94,0l20.1-36.6M288,302.2c1.4-19.4,10.8-36.6,26.5-47.3h40.9c-24.4,21.5-40.9,50.9-46.6,83.9l-20.8-36.6M250,110.7c26.5,0,53.1-5,77.5-15.1l-20.1,35.1c-36.6,18.6-79.6,18.6-115.5,0l-20.1-35.1c25.1,10,51.6,15.1,78.2,15.1M161.1,102.8l20.1,35.1c-2.9,41.6-24.4,80.3-58.1,103.3h-40.2c42.3-34.4,70.3-83.9,78.2-138.4M83.6,254.9h39.4c33.7,23,55.2,61,57.4,103.3l-20.1,35.1c-7.2-54.5-35.1-104.7-76.7-138.4M172.5,399.8l20.1-35.1c36.6-18.6,79.6-18.6,115.5,0l20.1,35.1c-50.2-20.1-106.1-20.1-155.6,0M338.9,393.3l-19.4-35.1c2.2-41.6,23.7-80.3,58.1-103.3h39.4c-42.3,33.7-70.3,83.9-78.2,138.4"/>
  <g>
    <path class="st8" d="M140.4,270c-3.2,0-5.8,2.6-5.8,5.8s2.6,5.8,5.8,5.8,5.8-2.6,5.8-5.8-2.6-5.8-5.8-5.8Z"/>
    <path class="st2" d="M170.7,276.7c-3.2,0-5.8,2.6-5.8,5.8s2.6,5.8,5.8,5.8,5.8-2.6,5.8-5.8c0-3.2-2.6-5.8-5.8-5.8Z"/>
    <path class="st0" d="M252.4,228.8h0s0,0,0,0Z"/>
    <path class="st6" d="M252.4,228.8h0s0,0,0,0h0Z"/>
    <path class="st4" d="M259.4,206.4h0s0,0,0,0h0Z"/>
    <path class="st5" d="M259.3,206.4h0s0,0,0,0h0Z"/>
    <path class="st7" d="M271.4,235.5c5,.6,9.4-1.5,9.7-4.5.3-3.1-3.4-6-8.5-6.6-1.4-.2-2.8,0-4.1.1l-5.4-12.1h0c-.2-.5-.5-1.4-.9-2.4-.2-.5-.5-1.1-.9-1.8-.4-.6-1-1.3-1.9-1.9-1.2-.7-2.6-1.1-3.9-1.1s-2.6.3-3.8,1h-.2c0,0-11.8,8.7-11.8,8.7-1.7-14.7-10.8-26.9-27.5-31-19-4.6-37,1.1-50.6,12.4l-2.1-23.3-.2-.5c-1.2-2.4-3.5-3.9-6.1-4.2-.3,0-.7,0-1,0-2.2,0-4.4.9-6,2.6h0c0,0-5.8,7.6-5.8,7.6-1.2-.3-2.6-.5-4.2-.4-4.6.3-8.3,2.5-8.1,5,.2,2.5,4,4.3,8.7,4.1,2.5-.2,4.8-.9,6.3-2h.2c0,.1.4-.4.4-.4.4-.4.7-.8.9-1.2l6.5-8.5c.2-.2.6-.5,1.2-.4h.2c.4,0,.7.2.9.4l2.4,27c-3.6,3.9-6.8,8.3-9.5,13l-12.7-23.1h0c-1.1-2.3-3.3-4-5.9-4.4-.4,0-.7,0-1.1,0-2.4,0-4.6,1.1-6.1,2.9h0c0,0-5.7,8.4-5.7,8.4-1.6-.7-3.5-1.1-5.6-1.1-5.3,0-9.6,2.6-9.6,5.9s4.3,5.9,9.6,5.9,8.7-2.1,9.5-4.9l7-10.2c.3-.3.6-.5,1-.5h.2c.5,0,.9.4,1.1.8v.2c0,0,15,27.2,15,27.2-1.4,3.3-2.5,6.8-3.3,10.4l-18-18.5h0c-1.5-1.6-3.5-2.5-5.7-2.5h-.5s0,0,0,0h0c-2.4.2-4.5,1.4-5.9,3.4l-13.4,19.9c-1.6-.6-3.5-.8-5.6-.7-5.3.4-9.4,3.3-9.2,6.5.2,3.2,4.7,5.6,10,5.2,2.4-.2,4.5-.9,6.2-1.9h.1c0,0,.2-.2.2-.2,1.6-1.1,2.6-2.5,2.7-3.9l14.4-21.3c.2-.3.6-.6,1-.6h0s0,0,0,0h0c.4,0,.7.2,1,.4h0c0,0,21.4,22,21.4,22-.2,2.4-.3,4.7-.3,7.1l-8.3-7.3h0c-2.1-1.9-4.7-2.9-7.3-2.9-2.7,0-5.5,1.1-7.6,3.1l-.2.2-16.6,22.5c-1.3-.4-2.8-.7-4.4-.7-5.3,0-9.6,2.6-9.6,5.9s4.3,5.9,9.6,5.9,9.6-2.6,9.6-5.9,0-.8-.2-1.2l16.4-22.2c.8-.8,1.9-1.2,3-1.2,1.1,0,2.1.4,3,1.2h0c0,0,12.6,11,12.6,11-9.8,1.2-17.4,9.6-17.4,19.7s8.9,19.9,19.9,19.9,9.1-1.7,12.5-4.5c3.2,6.6,9.9,11.2,17.8,11.2s19.7-8.8,19.9-19.6h0c1.6-.6,3.1-1.2,4.7-1.9l28.2-5.3h.2c.5-.3,1-.3,1.5-.3,1.7,0,3.3,1,4,2.6l6.2,28.1c-.2.4-.3.8-.4,1.3-.3,3.2,3.8,6.2,9,6.7,5.3.5,9.8-1.7,10.1-5,.3-3.2-3.8-6.2-9-6.7-1.4-.1-2.7,0-3.9.2l-5.9-26.5v-.2c-1.7-4.2-5.8-6.9-10.1-6.9-1,0-2.1.2-3.1.5h0s-10.5,2-10.5,2c2.1-1.5,4.1-3.1,5.9-4.8l21.4-11.7.6-.2h.5c.4.3.7.6.8,1l6.5,25.9c-.1.3-.2.6-.3.9-.5,3.2,3.3,6.5,8.6,7.3,5.2.8,9.9-1.1,10.4-4.3.5-3.2-3.3-6.5-8.6-7.3-1.6-.3-3-.2-4.4,0l-6.1-24c-.6-2.3-2.2-4.2-4.4-5.2-1-.4-2.1-.7-3.1-.7s-2.6.3-3.7.9l-6.4,3.5c1.8-2.7,3.4-5.6,4.8-8.4l13.7-10,.6-.2h.5c0,.3.2.5.3.7.3.7.7,1.7,1.1,2.8.4,1,.7,2.1,1,2.9h0s6.3,17.2,6.3,17.2c.3,2.8,3.7,5.6,8.2,6.6,5.2,1.1,10-.6,10.6-3.7.7-3.2-3-6.6-8.2-7.8-2-.4-4-.4-5.7,0l-5.3-14.4h0c-.4-1-1-2.9-1.6-4.6-.3-.9-.7-1.7-1.2-2.5-.2-.4-.5-.8-.8-1.2-.3-.4-.7-.8-1.4-1.2-1.2-.7-2.6-1.1-3.9-1.1-1.3,0-2.6.3-3.8,1h-.2c0,0-6.4,4.8-6.4,4.8.9-3.6,1.5-7.2,1.7-10.7l15-10.9.6-.2h.5c.1.3.3.7.5,1.3.2.6.5,1.4.9,2.2h0s5.8,12.9,5.8,12.9c-.1.3-.2.5-.2.8-.3,3.1,3.4,6,8.5,6.6ZM158.1,266.9h.2c0,.1,0,.2-.1.2,0,0,0-.1-.1-.2ZM149.9,285.3c-2.4,2.4-5.8,3.9-9.5,3.9s-7.1-1.5-9.5-3.9c-2.4-2.5-3.9-5.8-3.9-9.5s1.5-7.1,3.9-9.6c2.4-2.4,5.8-3.9,9.5-3.9s7.1,1.5,9.5,3.9c1.7,1.8,3,3.9,3.6,6.4-1.7,2.9-2.6,6.3-2.6,9.9s0,1.1,0,1.6c-.3.4-.6.8-1,1.2ZM180.2,292.1c-2.4,2.4-5.8,3.9-9.5,3.9s-7.1-1.5-9.5-3.9c-1.7-1.7-3-3.9-3.6-6.4-.3-1-.4-2.1-.4-3.1,0-2.5.6-4.7,1.8-6.7.3-.6.7-1.1,1.1-1.6.3-.4.6-.8,1-1.2,2.4-2.5,5.8-3.9,9.5-3.9s7.1,1.5,9.5,3.9c2.4,2.4,3.9,5.8,3.9,9.5,0,3.7-1.5,7.1-3.9,9.5ZM256.1,211.9h0s0,0,0,0Z"/>
  </g>
</svg>